<?xml version="1.0" encoding="UTF-8"?><svg xmlns="http://www.w3.org/2000/svg" width="1408" height="768" viewBox="0 0 1408 768"><g data-color-group="#104565" id="deep-cyan"><path id="48" d="M 441.032,312.500 C 443.493,300.788 446.095,293.659 452.217,281.853 C 472.716,242.324 509.548,218.920 543.523,223.832 C 558.428,225.987 575.158,232.770 590.137,242.730 C 592.437,244.260 594.738,245.789 597.038,247.319 C 598.282,246.277 599.525,245.234 600.769,244.192 C 607.907,238.211 621.551,229.229 629.742,225.120 C 683.534,198.136 744.024,201.608 792.480,234.461 C 795.666,236.621 798.851,238.781 802.037,240.941 C 803.700,239.682 805.364,238.423 807.027,237.164 C 833.296,217.282 856.578,212.502 878,222.592 C 905.284,235.443 924.537,265.220 930.082,303.146 C 931.711,314.288 930.666,332.564 927.547,347.500 C 926.169,354.100 925.032,360.084 925.021,360.797 C 925.010,361.510 928.037,359.481 931.750,356.288 C 940.313,348.924 953.819,339.392 958.406,337.475 C 960.348,336.664 964.029,336 966.586,336 C 970.682,336 971.714,336.479 975.258,340.023 C 976.599,341.364 977.941,342.705 979.282,344.046 C 979.052,347.686 978.821,351.326 978.591,354.965 C 977.958,364.970 978.081,366.239 980.068,370.134 C 982.847,375.581 983,382.487 980.438,386.875 C 977.958,391.123 971.160,394.591 963.483,395.526 C 955.808,396.460 953.185,397.848 948.009,403.716 C 942.415,410.057 939.339,416.360 929.898,440.826 C 921.106,463.608 915.681,474.507 907.199,486.425 C 889.460,511.350 865.691,525.738 835.078,530.085 C 811.501,533.433 777.327,526.627 752.436,513.628 C 749.074,511.872 745.711,510.116 742.349,508.360 C 740.041,508.616 737.732,508.873 735.424,509.129 C 718.858,510.968 694.721,509.819 678.194,506.405 C 645.594,499.671 620.790,487.010 598.805,465.880 C 594.868,462.096 591.563,459 591.462,459 C 591.361,459 589.334,462.038 586.957,465.750 C 584.580,469.462 578.960,476.203 574.468,480.728 C 563.552,491.726 554.651,496.167 542.216,496.820 C 526.745,497.632 513.810,492.884 504.714,483.056 C 498.246,476.068 494.727,469.504 487.528,451 C 479.772,431.066 472.595,416.737 462.983,402 C 449.469,381.280 443.642,368.249 440.512,351.750 C 438.454,340.902 438.682,323.682 441.032,312.500 ZM 775,387 C 768.923,384.210 768,383.155 768,381.393 C 768,379.214 768.413,379 772.617,379 C 774.156,379 775.696,379 777.235,379 C 776.994,376.417 776.754,373.833 776.513,371.250 C 775.477,360.126 775.272,359.890 766.161,359.316 C 761.720,359.036 757.208,359.305 755.426,359.954 C 754.401,360.327 753.376,360.700 752.351,361.073 C 751.773,366.477 751.197,371.883 750.619,377.287 C 749.666,386.204 748.419,395.284 747.847,397.464 C 746.498,402.609 740.585,408.511 735.464,409.823 C 733.284,410.382 717.767,411.150 700.981,411.529 C 666.264,412.314 664.059,412.022 658.530,405.902 C 654.097,400.995 653.430,398.321 650.642,374.250 C 649.860,367.500 649.078,360.750 648.296,354 C 646.497,353.994 644.697,353.989 642.898,353.983 C 631.891,353.949 585.465,357.281 584.500,358.174 C 582.837,359.713 582.755,374.870 584.354,385.483 C 585.927,395.927 585.537,398 581.999,398 C 579.614,398 578.280,394.206 576.897,383.500 C 574.822,367.431 576.660,349.555 582.438,329.616 C 588.201,309.728 583.995,296.266 566.649,279.082 C 558.410,270.920 551.458,266.125 543.029,262.792 C 538.628,261.052 535.357,260.595 527,260.553 C 523.500,260.535 520,260.518 516.500,260.500 C 513.227,262.102 509.953,263.704 506.680,265.306 C 495.753,270.654 484.932,279.993 476.928,290.985 C 473.762,295.332 471.909,297 470.243,297 C 458.855,297 482.171,268.960 501.743,259.118 C 518.506,250.689 535.490,250.648 552.048,258.999 C 568.551,267.322 584.205,284.387 589.621,299.960 C 593.705,311.704 593.645,315.556 589.108,332.988 C 586.891,341.507 585.397,348.758 585.788,349.102 C 586.442,349.676 619.919,348.048 640,346.465 C 642.833,346.242 645.667,346.018 648.500,345.795 C 649.432,344.471 650.363,343.145 651.295,341.821 C 656.441,334.504 657.537,334.320 700,333.629 C 723.499,333.246 738.828,333.386 741.057,334.003 C 746.963,335.637 753,343.835 753,350.218 C 753,352.448 753.238,352.500 763.396,352.500 C 766.861,352.500 770.327,352.500 773.792,352.500 C 773.943,350.931 774.094,349.361 774.245,347.792 C 774.768,342.354 778.395,336.932 783.302,334.249 C 786.075,332.733 789.926,332.467 812.250,332.250 C 820.833,332.167 829.417,332.083 838,332 C 840.137,332 842.275,332 844.412,332 C 843.705,328.917 842.997,325.833 842.290,322.750 C 832.540,280.247 809.362,250.137 771.726,231.083 C 749.744,219.954 728.784,214.957 704,214.937 C 669.138,214.908 636.828,225.969 608.022,247.794 C 603.928,250.896 602.854,252.204 603.772,252.972 C 604.181,253.315 604.591,253.657 605,254 C 610.931,259.202 612.007,260.941 611.804,262.367 C 611.214,266.500 607.598,265.441 599.226,258.682 C 582.686,245.328 568.078,237.258 552.500,232.866 C 536.508,228.357 515.591,230.938 501.145,239.203 C 468.554,257.850 444.068,301.768 446.341,337.502 C 447.669,358.385 453.251,373.066 468.999,397.097 C 479.287,412.796 485.870,425.927 494.519,448 C 501.721,466.380 505.300,472.969 511.569,479.389 C 518.968,486.967 533.531,491.177 545.222,489.118 C 554.722,487.445 560.916,483.740 570.321,474.107 C 578.857,465.365 581.953,460.713 590,444.543 C 594.467,435.566 597.234,433.010 598.424,436.760 C 598.751,437.790 598.038,441.304 596.840,444.567 C 596.114,446.545 595.387,448.522 594.661,450.500 C 597.968,453.858 601.273,457.215 604.580,460.573 C 614.701,470.850 625.400,478.649 638.522,485.312 C 648.355,490.305 653.868,492.342 667.008,495.836 C 687.304,501.232 694.188,502.197 713.481,502.354 C 719.475,502.403 725.468,502.451 731.462,502.500 C 727.110,498.167 722.759,493.833 718.407,489.500 C 710.172,481.300 703.443,473.546 700.181,468.500 C 697.337,464.100 694.877,460.106 694.713,459.623 C 694.549,459.140 692.050,459.252 689.147,459.875 C 683.103,461.171 680,460.152 680,456.870 C 680,455.208 681.088,454.526 685.628,453.340 C 689.936,452.215 692.502,450.693 696.565,446.850 C 702.378,441.352 705.301,440.804 705.803,445.119 C 705.996,446.779 705.182,448.819 703.553,450.755 C 702.149,452.424 701,454.360 701,455.057 C 701,457.203 707.056,466.066 714.871,475.359 C 722.730,484.705 736.728,496.559 747.042,502.604 C 771.682,517.045 808.761,525.992 831.444,522.969 C 850.915,520.374 862.010,516.470 875.659,507.410 C 894.643,494.809 909.778,472.986 922.409,440 C 931.582,416.045 933.789,411.077 938,404.904 C 945.361,394.114 954.056,388.070 962.282,388.022 C 967.135,387.994 972.537,385.732 973.919,383.150 C 975.562,380.080 975.244,377.520 972.377,370.720 C 969.890,364.821 969.817,364.165 970.953,358 C 972.150,351.506 972.024,345 970.701,345 C 970.467,345 970.234,345 970,345 C 969.080,343.363 967.504,343.138 965.906,343.444 C 964.937,343.629 963.969,343.815 963,344 C 955.204,347.088 938.987,358.979 928.933,368.979 C 918.800,379.058 911.565,389.536 896.292,416.250 C 892.528,422.833 888.764,429.417 885,436 C 885,436.667 885,437.333 885,438 C 884,439 883,440 882,441 C 881.667,441.333 881.333,441.667 881,442 C 875.667,447 870.333,452 865,457 C 862.667,458.333 860.333,459.667 858,461 C 857.667,461 857.333,461 857,461 C 850.412,461.803 845.912,461.578 842.750,461.018 C 840.833,460.679 838.917,460.339 837,460 C 836.352,459.813 835.704,459.625 835.056,459.438 C 833.987,459.129 831.961,458.004 828,455 C 823.667,451 819.333,447 815,443 C 814.333,442 813.667,441 813,440 C 812.667,439.333 812.333,438.667 812,438 C 807.471,427.538 804.943,421.575 803.462,418 C 798.481,405.980 789.546,394.822 781.316,390.347 C 779.878,389.565 778.439,388.782 777,388 C 776.333,387.667 775.667,387.333 775,387 ZM 810,248 C 814.586,253.085 819.172,258.171 823.758,263.256 C 825.962,261.386 828.166,259.517 830.370,257.647 C 842.650,247.230 855.267,242.803 866.112,245.106 C 878.339,247.703 892.874,258.191 899.954,269.524 C 901.303,271.683 902.651,273.841 904,276 C 904.083,276.917 904.167,277.833 904.250,278.750 C 904.457,281.029 904.066,281.551 901.965,281.796 C 899.822,282.046 898.645,280.966 894.337,274.796 C 887.790,265.420 881.029,259.140 873.500,255.445 C 865.131,251.337 855.023,251.252 847,255.221 C 841.113,258.133 829.169,267.744 829.064,269.654 C 829.029,270.289 830.616,273.664 832.591,277.154 C 840.666,291.422 847.122,308.235 850.004,322.500 C 851.572,330.259 851.725,330.492 857.018,333.285 C 859.767,334.736 862.395,337.168 863.815,339.575 C 866.024,343.320 866.105,344.143 865.573,357.500 C 864.347,388.280 862.358,398.424 856.550,403.500 C 854.996,404.858 853.746,407.831 852.655,412.763 C 850.904,420.680 843.071,441.531 839.950,446.581 C 836.337,452.428 836.994,453.166 846.250,453.669 C 853.504,454.063 855.103,453.823 859.500,451.676 C 862.250,450.333 866.368,447.269 868.650,444.867 C 873.794,439.454 883.640,424.216 892.544,407.891 C 896.261,401.076 900.795,393.382 902.618,390.794 C 910.238,379.978 914.130,369.645 921,342 C 921.667,336.667 922.333,331.333 923,326 C 922.128,300.852 920.891,292.457 915.913,277.904 C 905.520,247.522 879.748,224.944 855.540,225.015 C 844.202,225.048 829.442,230.546 815.545,239.914 C 813.030,241.609 810.515,243.305 808,245 C 808.667,246 809.333,247 810,248 ZM 827.082,408.253 C 817.054,408.563 808.666,409.001 808.441,409.226 C 807.963,409.704 813.551,423.177 817.495,431.055 C 821.073,438.201 827.691,447 829.490,447 C 830.274,447 832.068,445.035 833.476,442.632 C 837.036,436.557 843.901,418.002 844.673,412.367 C 844.887,410.808 845.100,409.249 845.314,407.690 C 839.237,407.878 833.159,408.065 827.082,408.253 ZM 742.343,343.996 C 741.458,342.944 740.573,341.891 739.687,340.839 C 726.807,340.949 713.928,341.060 701.048,341.170 C 666.169,341.468 662.147,341.672 659.720,343.263 C 658.241,344.232 656.716,346.257 656.329,347.763 C 655.286,351.823 660.509,396.461 662.331,399.062 C 665.977,404.268 666.409,404.337 694.400,404.141 C 722.002,403.948 730.893,403.454 735.059,401.881 C 739.842,400.075 741.164,396.015 743.124,377.090 C 745.728,351.948 745.633,347.906 742.343,343.996 ZM 858.055,345.500 C 857.605,344.400 856.234,342.600 855.009,341.500 C 852.861,339.571 851.645,339.513 820.641,339.865 C 787.378,340.243 784.118,340.645 782.621,344.545 C 781.496,347.477 781.983,356.299 784.024,369.958 C 784.694,374.444 785.365,378.931 786.035,383.417 C 788.281,385.466 790.526,387.515 792.772,389.565 C 796.477,392.947 800.177,396.963 800.994,398.489 C 801.489,399.414 801.985,400.340 802.480,401.265 C 809.950,401.024 817.420,400.783 824.890,400.542 C 837.456,400.137 848.365,399.334 849.725,398.715 C 854.094,396.724 855.106,392.859 857.082,370.597 C 859.202,346.707 859.146,348.165 858.055,345.500 Z" fill="#104565" stroke="none"/><path id="48" d="M 685.896,364.421 C 689.642,356.174 697.013,353.615 702.857,358.533 C 706.701,361.768 708.379,366.814 708.331,375.003 C 708.261,387.095 701.989,394.512 693.888,392.085 C 685.430,389.551 681.174,374.818 685.896,364.421 ZM 703.555,363.046 C 701.646,361.461 697.972,362.073 696.641,364.197 C 695.046,366.742 696.999,371.423 699.825,371.827 C 702.920,372.270 705,370.329 705,367 C 705,365.485 704.350,363.706 703.555,363.046 Z" fill="#104565" stroke="none"/><path id="48" d="M 796.412,362.500 C 800.590,353.100 810.172,351.689 815.149,359.742 C 818.377,364.964 818.903,376.169 816.208,382.262 C 811.678,392.503 800.920,391.886 796.413,381.128 C 794.645,376.908 794.645,366.476 796.412,362.500 ZM 813.441,362.219 C 810.657,358.244 806,359.984 806,365 C 806,367.933 807.644,370.008 809.950,369.985 C 813.880,369.946 815.824,365.621 813.441,362.219 Z" fill="#104565" stroke="none"/><path id="48" d="M 673.856,317.500 C 678.110,310.702 684.106,307.376 693.965,306.346 C 703.333,305.367 708.810,308.750 706.088,313.835 C 705.238,315.423 703.636,315.821 696.599,316.190 C 688.949,316.592 687.545,316.997 682.051,320.388 C 673.513,325.658 669.611,324.283 673.856,317.500 Z" fill="#104565" stroke="none"/><path id="48" d="M 955.491,361.250 C 956.389,359.185 957.611,358 958.845,358 C 961.333,358 961.975,359.765 961.305,364.760 C 961.009,366.964 961.282,370.326 961.911,372.231 C 962.540,374.136 962.769,376.438 962.420,377.347 C 961.508,379.724 957.381,379.381 955.557,376.777 C 953.611,373.999 953.576,365.656 955.491,361.250 Z" fill="#104565" stroke="none"/></g><g data-color-group="#258aaa" id="cyan"><path id="3" d="M 838,332 C 829.417,332.083 820.833,332.167 812.250,332.250 C 789.926,332.467 786.075,332.733 783.302,334.249 C 778.395,336.932 774.768,342.354 774.245,347.792 C 774.094,349.361 773.943,350.931 773.792,352.500 C 770.327,352.500 766.861,352.500 763.396,352.500 C 753.238,352.500 753,352.448 753,350.218 C 753,343.835 746.963,335.637 741.057,334.003 C 738.828,333.386 723.499,333.246 700,333.629 C 657.537,334.320 656.441,334.504 651.295,341.821 C 650.363,343.145 649.432,344.471 648.500,345.795 C 645.667,346.018 642.833,346.242 640,346.465 C 619.919,348.048 586.442,349.676 585.788,349.102 C 585.397,348.758 586.891,341.507 589.108,332.988 C 593.645,315.556 593.705,311.704 589.621,299.960 C 584.205,284.387 568.551,267.322 552.048,258.999 C 535.490,250.648 518.506,250.689 501.743,259.118 C 482.171,268.960 458.855,297 470.243,297 C 471.909,297 473.762,295.332 476.928,290.985 C 484.932,279.993 495.753,270.654 506.680,265.306 C 509.953,263.704 513.227,262.102 516.500,260.500 C 520,260.518 523.500,260.535 527,260.553 C 535.357,260.595 538.628,261.052 543.029,262.792 C 551.458,266.125 558.410,270.920 566.649,279.082 C 583.995,296.266 588.201,309.728 582.438,329.616 C 576.660,349.555 574.822,367.431 576.897,383.500 C 578.280,394.206 579.614,398 581.999,398 C 585.537,398 585.927,395.927 584.354,385.483 C 582.755,374.870 582.837,359.713 584.500,358.174 C 585.465,357.281 631.891,353.949 642.898,353.983 C 644.697,353.989 646.497,353.994 648.296,354 C 649.078,360.750 649.860,367.500 650.642,374.250 C 653.430,398.321 654.097,400.995 658.530,405.902 C 664.059,412.022 666.264,412.314 700.981,411.529 C 717.767,411.150 733.284,410.382 735.464,409.823 C 740.585,408.511 746.498,402.609 747.847,397.464 C 748.419,395.284 749.666,386.204 750.619,377.287 C 751.197,371.883 751.773,366.477 752.351,361.073 C 753.376,360.700 754.401,360.327 755.426,359.954 C 757.208,359.305 761.720,359.036 766.161,359.316 C 775.272,359.890 775.477,360.126 776.513,371.250 C 776.754,373.833 776.994,376.417 777.235,379 C 775.696,379 774.156,379 772.617,379 C 768.413,379 768,379.214 768,381.393 C 768,383.155 768.923,384.210 775,387 C 774.750,387.006 774.500,387.013 774.250,387.019 C 773.838,387.030 773.597,388.042 773.716,389.269 C 773.788,390.013 773.859,390.756 773.931,391.500 C 773.402,390.750 772.873,390 772.344,389.250 C 771.471,388.013 770.001,387 769.078,387 C 766.645,387 765,384.983 765,382 C 765,378.532 766.462,377.261 770.944,376.834 C 772.189,376.715 773.433,376.597 774.678,376.478 C 774.346,374.029 774.016,371.579 773.684,369.130 C 773.352,366.681 773.021,364.231 772.689,361.782 C 770.824,361.634 768.959,361.485 767.094,361.337 C 764.017,361.092 759.852,361.376 757.838,361.968 C 756.617,362.327 755.397,362.686 754.176,363.045 C 753.954,365.954 753.731,368.864 753.509,371.773 C 752.549,384.333 749.113,402.286 747.005,405.752 C 746.010,407.388 743.216,409.685 740.797,410.856 C 736.590,412.893 734.812,412.997 699.949,413.243 C 658.629,413.535 659.088,413.610 655.001,405.786 C 651.311,398.721 650.053,393.164 649.049,379.500 C 648.524,372.350 647.555,364.177 646.896,361.339 C 646.497,359.619 646.097,357.898 645.698,356.178 C 642.665,356.325 639.632,356.472 636.599,356.619 C 603.509,358.223 592.673,359.111 591.131,360.346 C 589.438,361.701 590.006,369.869 592.842,385 C 595.464,398.989 596.971,403.402 604.971,420.500 C 611.109,433.619 625.815,451.261 637.388,459.388 C 646.369,465.695 667.453,476.435 675.500,478.801 C 682.982,481.001 704.253,485.020 708.149,484.970 C 710.115,484.945 710.234,484.784 708.872,483.988 C 706.994,482.891 699.500,473.313 699.500,472.010 C 699.500,471.530 698.191,468.896 696.592,466.158 C 695.623,464.499 694.654,462.839 693.685,461.180 C 691.762,461.538 689.839,461.895 687.916,462.253 C 682.982,463.171 681.774,463.082 679.573,461.640 C 674.535,458.339 677.490,451.881 684.654,450.537 C 686.774,450.139 691.461,447.643 695.217,444.911 C 698.931,442.210 702.821,440 703.862,440 C 706.636,440 708.201,442.440 707.873,446.250 C 707.501,450.569 711.412,455.536 722.962,465.411 C 740.970,480.808 759.570,492.489 775.765,498.574 C 795.420,505.958 805.091,508 820.423,508 C 837.118,508 841.610,506.939 861,498.418 C 871.363,493.864 877.489,488.887 888.215,476.309 C 897.911,464.939 899.036,463.154 904.917,449.809 C 908.385,441.939 912.288,432.575 913.590,429 C 914.892,425.425 916.390,421.600 916.918,420.500 C 917.446,419.400 919.218,415.367 920.856,411.538 C 926.753,397.752 941.463,382.594 950.971,380.506 C 953.819,379.880 953.833,379.845 952.423,376.470 C 951.640,374.597 951,371.512 951,369.615 C 951,365.694 953.936,358.207 956.466,355.677 C 958.062,354.081 958.336,354.103 961.081,356.058 C 963.613,357.861 964,358.773 964,362.942 C 964,368.150 966.337,375.972 968.246,377.152 C 968.899,377.556 969.997,377.417 970.687,376.845 C 971.677,376.023 971.526,374.993 969.970,371.942 C 967.779,367.648 967.422,360.217 969.065,353.091 C 970.434,347.152 969.102,345.853 964.757,348.893 C 961.605,351.099 961.548,351.103 963,349.050 C 963.825,347.883 965.737,346.494 970,345 C 970.234,345 970.467,345 970.701,345 C 972.024,345 972.150,351.506 970.953,358 C 969.817,364.165 969.890,364.821 972.377,370.720 C 975.244,377.520 975.562,380.080 973.919,383.150 C 972.537,385.732 967.135,387.994 962.282,388.022 C 954.056,388.070 945.361,394.114 938,404.904 C 933.789,411.077 931.582,416.045 922.409,440 C 909.778,472.986 894.643,494.809 875.659,507.410 C 862.010,516.470 850.915,520.374 831.444,522.969 C 808.761,525.992 771.682,517.045 747.042,502.604 C 736.728,496.559 722.730,484.705 714.871,475.359 C 707.056,466.066 701,457.203 701,455.057 C 701,454.360 702.149,452.424 703.553,450.755 C 705.182,448.819 705.996,446.779 705.803,445.119 C 705.301,440.804 702.378,441.352 696.565,446.850 C 692.502,450.693 689.936,452.215 685.628,453.340 C 681.088,454.526 680,455.208 680,456.870 C 680,460.152 683.103,461.171 689.147,459.875 C 692.050,459.252 694.549,459.140 694.713,459.623 C 694.877,460.106 697.337,464.100 700.181,468.500 C 703.443,473.546 710.172,481.300 718.407,489.500 C 722.759,493.833 727.110,498.167 731.462,502.500 C 725.468,502.451 719.475,502.403 713.481,502.354 C 694.188,502.197 687.304,501.232 667.008,495.836 C 653.868,492.342 648.355,490.305 638.522,485.312 C 625.400,478.649 614.701,470.850 604.580,460.573 C 601.273,457.215 597.968,453.858 594.661,450.500 C 595.387,448.522 596.114,446.545 596.840,444.567 C 598.038,441.304 598.751,437.790 598.424,436.760 C 597.234,433.010 594.467,435.566 590,444.543 C 581.953,460.713 578.857,465.365 570.321,474.107 C 560.916,483.740 554.722,487.445 545.222,489.118 C 533.531,491.177 518.968,486.967 511.569,479.389 C 505.300,472.969 501.721,466.380 494.519,448 C 485.870,425.927 479.287,412.796 468.999,397.097 C 453.251,373.066 447.669,358.385 446.341,337.502 C 444.068,301.768 468.554,257.850 501.145,239.203 C 515.591,230.938 536.508,228.357 552.500,232.866 C 568.078,237.258 582.686,245.328 599.226,258.682 C 607.598,265.441 611.214,266.500 611.804,262.367 C 612.007,260.941 610.931,259.202 605,254 C 605.335,254.187 605.669,254.375 606.004,254.562 C 606.556,254.871 608.807,254.196 615,251 C 614.494,251.820 613.989,252.641 613.483,253.461 C 612.209,255.528 612.164,256.556 613.204,259.888 C 614.304,263.412 614.233,264.085 612.566,265.927 C 609.880,268.895 607.446,268.511 601.942,264.250 C 599.278,262.188 594.039,258.250 590.299,255.500 C 586.559,252.750 582.986,249.819 582.358,248.986 C 581.730,248.153 578.355,246.191 574.858,244.626 C 571.361,243.061 567.150,241.155 565.500,240.391 C 563.850,239.627 558.450,237.637 553.500,235.969 C 543.797,232.699 534.971,232.034 525.500,233.859 C 522.750,234.389 517.842,235.301 514.593,235.885 C 506.827,237.281 499.551,241.747 489.606,251.226 C 485.147,255.475 480.962,258.963 480.305,258.976 C 478.962,259.003 470,269.626 470,271.191 C 470,272.392 463.321,283.652 460.920,286.500 C 457.803,290.197 455.797,295.260 452.832,306.913 C 449.960,318.199 447.945,333.223 449.496,331.782 C 449.921,331.387 452.152,325.537 454.453,318.782 C 456.754,312.027 460.013,304.250 461.694,301.500 C 463.375,298.750 465.046,294.528 465.408,292.118 C 466.300,286.182 470.460,280.719 481.080,271.541 C 485.986,267.301 490,263.450 490,262.983 C 490,261.506 503.230,254.989 510.193,253.036 C 520.709,250.087 533.500,249.422 540.508,251.459 C 550.777,254.444 565.639,263.616 573.796,272 C 581.921,280.352 585.361,285.359 590.801,296.756 C 593.938,303.327 594.550,305.735 594.847,312.654 C 595.137,319.410 594.760,322.067 592.645,328.154 C 591.241,332.194 589.960,337.975 589.797,341 C 589.698,342.833 589.599,344.667 589.500,346.500 C 594.333,346.400 599.167,346.299 604,346.199 C 611.975,346.033 622.325,345.474 627,344.957 C 631.675,344.440 637.879,344.013 640.787,344.008 C 645.700,344 646.372,343.694 650.287,339.678 C 658.403,331.351 657.766,331.519 681.956,331.345 C 693.805,331.260 712.139,331.124 722.699,331.043 C 746.699,330.860 748.290,331.503 754.041,343.725 C 754.861,345.467 755.680,347.209 756.500,348.951 C 758.966,349.039 761.432,349.128 763.898,349.216 C 766.364,349.304 768.830,349.393 771.296,349.481 C 771.752,347.917 772.208,346.354 772.664,344.790 C 773.416,342.210 774.475,339.825 775.016,339.490 C 775.557,339.155 776,338.046 776,337.023 C 776,335.955 777.597,334.171 779.750,332.832 C 783.340,330.600 784.639,330.468 837,329 C 837.333,330 837.667,331 838,332 ZM 710.500,485 C 710.225,485 710,485.225 710,485.500 C 710,485.775 710.225,486 710.500,486 C 710.775,486 711,485.775 711,485.500 C 711,485.225 710.775,485 710.500,485 ZM 955.491,361.250 C 953.576,365.656 953.611,373.999 955.557,376.777 C 957.381,379.381 961.508,379.724 962.420,377.347 C 962.769,376.438 962.540,374.136 961.911,372.231 C 961.282,370.326 961.009,366.964 961.305,364.760 C 961.975,359.765 961.333,358 958.845,358 C 957.611,358 956.389,359.185 955.491,361.250 Z" fill="#258AAA" stroke="none"/><path id="49" d="M 904,276 C 905.550,276.866 906.071,278.329 906.159,279.809 C 906.249,281.334 907.764,284.016 909.657,286 C 912.566,289.050 913.330,291.042 915.599,301.500 C 917.711,311.234 918.193,316.057 918.151,327.039 C 918.103,339.786 918.440,342.201 920.250,342.059 C 920.500,342.039 920.750,342.020 921,342 C 914.130,369.645 910.238,379.978 902.618,390.794 C 900.795,393.382 896.261,401.076 892.544,407.891 C 883.640,424.216 873.794,439.454 868.650,444.867 C 866.368,447.269 862.250,450.333 859.500,451.676 C 855.103,453.823 853.504,454.063 846.250,453.669 C 836.994,453.166 836.337,452.428 839.950,446.581 C 843.071,441.531 850.904,420.680 852.655,412.763 C 853.746,407.831 854.996,404.858 856.550,403.500 C 862.358,398.424 864.347,388.280 865.573,357.500 C 866.105,344.143 866.024,343.320 863.815,339.575 C 862.395,337.168 859.767,334.736 857.018,333.285 C 851.725,330.492 851.572,330.259 850.004,322.500 C 847.122,308.235 840.666,291.422 832.591,277.154 C 830.616,273.664 829.029,270.289 829.064,269.654 C 829.169,267.744 841.113,258.133 847,255.221 C 855.023,251.252 865.131,251.337 873.500,255.445 C 881.029,259.140 887.790,265.420 894.337,274.796 C 898.645,280.966 899.822,282.046 901.965,281.796 C 904.066,281.551 904.457,281.029 904.250,278.750 C 904.167,277.833 904.083,276.917 904,276 Z" fill="#258AAA" stroke="none"/><path id="49" d="M 752.255,417.885 C 755.905,413.634 760.214,411.225 768.065,409.049 C 778.281,406.218 787.613,406.301 791.305,409.255 C 792.240,410.003 793.176,410.752 794.111,411.500 C 790.676,411.500 787.240,411.500 783.805,411.500 C 780.370,411.500 776.935,411.500 773.500,411.500 C 770.053,413.250 766.606,415 763.159,416.750 C 750.127,423.367 747.296,423.662 752.255,417.885 Z" fill="#258AAA" stroke="none"/><path id="49" d="M 813,444 C 798.016,446.087 793.030,448.066 786.986,454.323 C 782.251,459.225 780,460.161 780,457.228 C 780,450.986 797.610,440 807.616,440 C 809.411,440 811.205,440 813,440 C 813.667,441 814.333,442 815,443 C 814.333,443.333 813.667,443.667 813,444 Z" fill="#258AAA" stroke="none"/><path id="49" d="M 835,460 C 828.258,467.362 825.634,471.525 824.818,474 C 823.245,478.772 820,480.849 820,477.084 C 820,474.453 824.606,462.890 826.534,460.680 C 827.023,460.120 827.511,459.560 828,459 C 828,457.667 828,456.333 828,455 C 831.961,458.004 833.987,459.129 835.056,459.438 C 835.704,459.625 836.352,459.813 837,460 C 836.333,460 835.667,460 835,460 Z" fill="#258AAA" stroke="none"/><path id="49" d="M 864,461 C 863.202,462.440 863.516,464.901 864.184,467.397 C 864.852,469.893 865.081,472.251 864.695,472.638 C 863.277,474.056 858.962,468.619 858.481,464.808 C 858.321,463.539 858.160,462.269 858,461 C 860.333,459.667 862.667,458.333 865,457 C 864.667,458.333 864.333,459.667 864,461 Z" fill="#258AAA" stroke="none"/><path id="49" d="M 885,438 C 887.325,440.621 888,442.646 888,444.191 C 888,447.659 886.339,447.839 884.834,444.535 C 884.216,443.179 883.327,441.829 882.856,441.535 C 882.571,441.357 882.285,441.178 882,441 C 883,440 884,439 885,438 Z" fill="#258AAA" stroke="none"/></g><g data-color-group="#2dacc8" id="cyan-2"><path id="4" d="M 837,329 C 784.639,330.468 783.340,330.600 779.750,332.832 C 777.597,334.171 776,335.955 776,337.023 C 776,338.046 775.557,339.155 775.016,339.490 C 774.475,339.825 773.416,342.210 772.664,344.790 C 772.208,346.354 771.752,347.917 771.296,349.481 C 768.830,349.393 766.364,349.304 763.898,349.216 C 761.432,349.128 758.966,349.039 756.500,348.951 C 755.680,347.209 754.861,345.467 754.041,343.725 C 748.290,331.503 746.699,330.860 722.699,331.043 C 712.139,331.124 693.805,331.260 681.956,331.345 C 657.766,331.519 658.403,331.351 650.287,339.678 C 646.372,343.694 645.700,344 640.787,344.008 C 637.879,344.013 631.675,344.440 627,344.957 C 622.325,345.474 611.975,346.033 604,346.199 C 599.167,346.299 594.333,346.400 589.500,346.500 C 589.599,344.667 589.698,342.833 589.797,341 C 589.960,337.975 591.241,332.194 592.645,328.154 C 594.760,322.067 595.137,319.410 594.847,312.654 C 594.550,305.735 593.938,303.327 590.801,296.756 C 585.361,285.359 581.921,280.352 573.796,272 C 565.639,263.616 550.777,254.444 540.508,251.459 C 533.500,249.422 520.709,250.087 510.193,253.036 C 503.230,254.989 490,261.506 490,262.983 C 490,263.450 485.986,267.301 481.080,271.541 C 470.460,280.719 466.300,286.182 465.408,292.118 C 465.046,294.528 463.375,298.750 461.694,301.500 C 460.013,304.250 456.754,312.027 454.453,318.782 C 452.152,325.537 449.921,331.387 449.496,331.782 C 447.945,333.223 449.960,318.199 452.832,306.913 C 455.797,295.260 457.803,290.197 460.920,286.500 C 463.321,283.652 470,272.392 470,271.191 C 470,269.626 478.962,259.003 480.305,258.976 C 480.962,258.963 485.147,255.475 489.606,251.226 C 499.551,241.747 506.827,237.281 514.593,235.885 C 517.842,235.301 522.750,234.389 525.500,233.859 C 534.971,232.034 543.797,232.699 553.500,235.969 C 558.450,237.637 563.850,239.627 565.500,240.391 C 567.150,241.155 571.361,243.061 574.858,244.626 C 578.355,246.191 581.730,248.153 582.358,248.986 C 582.986,249.819 586.559,252.750 590.299,255.500 C 594.039,258.250 599.278,262.188 601.942,264.250 C 607.446,268.511 609.880,268.895 612.566,265.927 C 614.233,264.085 614.304,263.412 613.204,259.888 C 612.164,256.556 612.209,255.528 613.483,253.461 C 613.989,252.641 614.494,251.820 615,251 C 615.417,250.535 615.833,250.070 616.250,249.605 C 618.313,247.302 642.875,235.335 652.079,232.148 C 656.797,230.514 666.022,227.930 672.579,226.406 C 683.280,223.919 686.343,223.636 702.500,223.646 C 717.384,223.655 722.318,224.047 731,225.913 C 750.408,230.084 770.198,238.098 784.760,247.685 C 793.541,253.466 809.547,269.507 815.508,278.500 C 825.587,293.706 833.025,311.183 837,329 ZM 673.856,317.500 C 669.611,324.283 673.513,325.658 682.051,320.388 C 687.545,316.997 688.949,316.592 696.599,316.190 C 703.636,315.821 705.238,315.423 706.088,313.835 C 708.810,308.750 703.333,305.367 693.965,306.346 C 684.106,307.376 678.110,310.702 673.856,317.500 Z" fill="#2DACC8" stroke="none"/><path id="4" d="M 970,345 C 965.737,346.494 963.825,347.883 963,349.050 C 961.548,351.103 961.605,351.099 964.757,348.893 C 969.102,345.853 970.434,347.152 969.065,353.091 C 967.422,360.217 967.779,367.648 969.970,371.942 C 971.526,374.993 971.677,376.023 970.687,376.845 C 969.997,377.417 968.899,377.556 968.246,377.152 C 966.337,375.972 964,368.150 964,362.942 C 964,358.773 963.613,357.861 961.081,356.058 C 958.336,354.103 958.062,354.081 956.466,355.677 C 953.936,358.207 951,365.694 951,369.615 C 951,371.512 951.640,374.597 952.423,376.470 C 953.833,379.845 953.819,379.880 950.971,380.506 C 941.463,382.594 926.753,397.752 920.856,411.538 C 919.218,415.367 917.446,419.400 916.918,420.500 C 916.390,421.600 914.892,425.425 913.590,429 C 912.288,432.575 908.385,441.939 904.917,449.809 C 899.036,463.154 897.911,464.939 888.215,476.309 C 877.489,488.887 871.363,493.864 861,498.418 C 841.610,506.939 837.118,508 820.423,508 C 805.091,508 795.420,505.958 775.765,498.574 C 759.570,492.489 740.970,480.808 722.962,465.411 C 711.412,455.536 707.501,450.569 707.873,446.250 C 708.201,442.440 706.636,440 703.862,440 C 702.821,440 698.931,442.210 695.217,444.911 C 691.461,447.643 686.774,450.139 684.654,450.537 C 677.490,451.881 674.535,458.339 679.573,461.640 C 681.774,463.082 682.982,463.171 687.916,462.253 C 689.839,461.895 691.762,461.538 693.685,461.180 C 694.654,462.839 695.623,464.499 696.592,466.158 C 698.191,468.896 699.500,471.530 699.500,472.010 C 699.500,473.313 706.994,482.891 708.872,483.988 C 710.234,484.784 710.115,484.945 708.149,484.970 C 704.253,485.020 682.982,481.001 675.500,478.801 C 667.453,476.435 646.369,465.695 637.388,459.388 C 625.815,451.261 611.109,433.619 604.971,420.500 C 596.971,403.402 595.464,398.989 592.842,385 C 590.006,369.869 589.438,361.701 591.131,360.346 C 592.673,359.111 603.509,358.223 636.599,356.619 C 639.632,356.472 642.665,356.325 645.698,356.178 C 646.097,357.898 646.497,359.619 646.896,361.339 C 647.555,364.177 648.524,372.350 649.049,379.500 C 650.053,393.164 651.311,398.721 655.001,405.786 C 659.088,413.610 658.629,413.535 699.949,413.243 C 734.812,412.997 736.590,412.893 740.797,410.856 C 743.216,409.685 746.010,407.388 747.005,405.752 C 749.113,402.286 752.549,384.333 753.509,371.773 C 753.731,368.864 753.954,365.954 754.176,363.045 C 755.397,362.686 756.617,362.327 757.838,361.968 C 759.852,361.376 764.017,361.092 767.094,361.337 C 768.959,361.485 770.824,361.634 772.689,361.782 C 773.021,364.231 773.352,366.681 773.684,369.130 C 774.016,371.579 774.346,374.029 774.678,376.478 C 773.433,376.597 772.189,376.715 770.944,376.834 C 766.462,377.261 765,378.532 765,382 C 765,384.983 766.645,387 769.078,387 C 770.001,387 771.471,388.013 772.344,389.250 C 772.873,390 773.402,390.750 773.931,391.500 C 773.859,390.756 773.788,390.013 773.716,389.269 C 773.597,388.042 773.838,387.030 774.250,387.019 C 774.500,387.013 774.750,387.006 775,387 C 775.667,387.333 776.333,387.667 777,388 C 776.750,388.046 776.500,388.092 776.250,388.138 C 775.838,388.214 776.993,389.657 778.818,391.346 C 780.643,393.035 784.565,397.644 787.534,401.588 C 790.503,405.532 793.622,409.024 794.466,409.348 C 795.310,409.672 796,411.068 796,412.449 C 796,414.855 804.248,435.103 806.327,437.801 C 806.902,438.548 808.324,438.867 812,438 C 812.333,438.667 812.667,439.333 813,440 C 811.205,440 809.411,440 807.616,440 C 797.610,440 780,450.986 780,457.228 C 780,460.161 782.251,459.225 786.986,454.323 C 793.030,448.066 798.016,446.087 813,444 C 812.681,444.386 812.362,444.771 812.043,445.157 C 809.787,447.885 822.508,458.921 828,459 C 827.511,459.560 827.023,460.120 826.534,460.680 C 824.606,462.890 820,474.453 820,477.084 C 820,480.849 823.245,478.772 824.818,474 C 825.634,471.525 828.258,467.362 835,460 C 834.630,460.494 834.261,460.989 833.891,461.483 C 832.094,463.888 837.311,465.379 847.749,465.443 C 856.690,465.498 856.998,465.425 857,461 C 857.333,461 857.667,461 858,461 C 858.160,462.269 858.321,463.539 858.481,464.808 C 858.962,468.619 863.277,474.056 864.695,472.638 C 865.081,472.251 864.852,469.893 864.184,467.397 C 863.516,464.901 863.202,462.440 864,461 C 865.020,460.838 866.041,460.675 867.061,460.513 C 870.717,459.931 881.752,449.837 882.652,446.251 C 882.983,444.933 882.747,443.437 881,442 C 881.333,441.667 881.667,441.333 882,441 C 882.285,441.178 882.571,441.357 882.856,441.535 C 883.327,441.829 884.216,443.179 884.834,444.535 C 886.339,447.839 888,447.659 888,444.191 C 888,442.646 887.325,440.621 885,438 C 885,437.333 885,436.667 885,436 C 885.495,436.370 885.989,436.739 886.484,437.109 C 887.715,438.029 889.524,435.603 897.107,422.859 C 902.133,414.412 907.856,404.800 909.824,401.500 C 915.860,391.380 924.961,379.083 930.555,373.489 C 933.483,370.561 940.518,364.678 946.189,360.416 C 960.822,349.418 966.370,344 963,344 C 963.969,343.815 964.937,343.629 965.906,343.444 C 967.504,343.138 969.080,343.363 970,345 ZM 752.255,417.885 C 747.296,423.662 750.127,423.367 763.159,416.750 C 766.606,415 770.053,413.250 773.500,411.500 C 776.935,411.500 780.370,411.500 783.805,411.500 C 787.240,411.500 790.676,411.500 794.111,411.500 C 793.176,410.752 792.240,410.003 791.305,409.255 C 787.613,406.301 778.281,406.218 768.065,409.049 C 760.214,411.225 755.905,413.634 752.255,417.885 Z" fill="#2DACC8" stroke="none"/><path id="4" d="M 810,248 C 810.512,248.207 811.025,248.414 811.537,248.621 C 812.383,248.963 813.845,248.563 814.787,247.731 C 817.494,245.341 833.991,237.377 839.821,235.646 C 858.316,230.154 874.381,233.941 888.464,247.115 C 907.507,264.929 918.834,290.688 920.733,320.500 C 921.174,327.431 921.620,329.810 923,326 C 922.333,331.333 921.667,336.667 921,342 C 920.750,342.020 920.500,342.039 920.250,342.059 C 918.440,342.201 918.103,339.786 918.151,327.039 C 918.193,316.057 917.711,311.234 915.599,301.500 C 913.330,291.042 912.566,289.050 909.657,286 C 907.764,284.016 906.249,281.334 906.159,279.809 C 906.071,278.329 905.550,276.866 904,276 C 902.651,273.841 901.303,271.683 899.954,269.524 C 892.874,258.191 878.339,247.703 866.112,245.106 C 855.267,242.803 842.650,247.230 830.370,257.647 C 828.166,259.517 825.962,261.386 823.758,263.256 C 819.172,258.171 814.586,253.085 810,248 Z" fill="#2DACC8" stroke="none"/><path id="4" d="M 827.082,408.253 C 833.159,408.065 839.237,407.878 845.314,407.690 C 845.100,409.249 844.887,410.808 844.673,412.367 C 843.901,418.002 837.036,436.557 833.476,442.632 C 832.068,445.035 830.274,447 829.490,447 C 827.691,447 821.073,438.201 817.495,431.055 C 813.551,423.177 807.963,409.704 808.441,409.226 C 808.666,409.001 817.054,408.563 827.082,408.253 Z" fill="#2DACC8" stroke="none"/><path id="4" d="M 710.500,485 C 710.775,485 711,485.225 711,485.500 C 711,485.775 710.775,486 710.500,486 C 710.225,486 710,485.775 710,485.500 C 710,485.225 710.225,485 710.500,485 Z" fill="#2DACC8" stroke="none"/></g><g data-color-group="#c7d1d3" id="pale-cyan"><path id="25" d="M 389.760,667.898 C 397.186,661.241 396.582,661.378 399.115,665.779 C 401.795,670.436 406.419,673.847 411.699,675.063 C 417.439,676.384 992.563,676.254 997.321,674.930 C 1001.990,673.631 1008.559,667.892 1009.453,664.332 C 1009.936,662.408 1010.406,662.006 1011.223,662.823 C 1012.545,664.145 1009.507,675.333 1007.338,677.134 C 1006.602,677.745 1006,678.834 1006,679.554 C 1006,681.431 1001.371,684.381 995,686.565 C 990.296,688.177 986.083,688.478 965.895,688.637 C 952.912,688.740 936.487,688.938 929.395,689.080 C 922.303,689.221 805.575,689.246 670,689.133 C 498.650,688.990 421.976,688.600 418.500,687.852 C 407.493,685.485 405.480,684.317 401.619,678.062 C 399.628,674.837 397.993,671.591 397.985,670.849 C 397.943,667.185 396.326,666.689 392.124,669.051 C 387.172,671.834 386.005,671.265 389.760,667.898 Z" fill="#C7D1D3" stroke="none" style="display:none"/></g><g data-color-group="#acdeec" id="light-cyan"><path id="13" d="M 742.343,343.996 C 745.633,347.906 745.728,351.948 743.124,377.090 C 741.164,396.015 739.842,400.075 735.059,401.881 C 730.893,403.454 722.002,403.948 694.400,404.141 C 666.409,404.337 665.977,404.268 662.331,399.062 C 660.509,396.461 655.286,351.823 656.329,347.763 C 656.716,346.257 658.241,344.232 659.720,343.263 C 662.147,341.672 666.169,341.468 701.048,341.170 C 713.928,341.060 726.807,340.949 739.687,340.839 C 740.573,341.891 741.458,342.944 742.343,343.996 ZM 736.500,342.362 C 735.675,342.045 734.424,342.008 733.719,342.278 C 732.082,342.906 729,352.611 729,357.140 C 729,359.046 727.411,367.077 725.469,374.986 C 722.306,387.869 722.097,389.525 723.462,390.890 C 726.010,393.438 727.086,391.040 730.134,376.018 C 731.709,368.256 733.618,360.690 734.377,359.203 C 735.737,356.538 738,347.305 738,344.419 C 738,343.604 737.325,342.679 736.500,342.362 ZM 685.896,364.421 C 681.174,374.818 685.430,389.551 693.888,392.085 C 701.989,394.512 708.261,387.095 708.331,375.003 C 708.379,366.814 706.701,361.768 702.857,358.533 C 697.013,353.615 689.642,356.174 685.896,364.421 Z" fill="#ACDEEC" stroke="none"/><path id="13" d="M 858.055,345.500 C 859.146,348.165 859.202,346.707 857.082,370.597 C 855.106,392.859 854.094,396.724 849.725,398.715 C 848.365,399.334 837.456,400.137 824.890,400.542 C 817.420,400.783 809.950,401.024 802.480,401.265 C 801.985,400.340 801.489,399.414 800.994,398.489 C 800.177,396.963 796.477,392.947 792.772,389.565 C 790.526,387.515 788.281,385.466 786.035,383.417 C 785.365,378.931 784.694,374.444 784.024,369.958 C 781.983,356.299 781.496,347.477 782.621,344.545 C 784.118,340.645 787.378,340.243 820.641,339.865 C 851.645,339.513 852.861,339.571 855.009,341.500 C 856.234,342.600 857.605,344.400 858.055,345.500 ZM 850.171,340.755 C 846.277,339.737 844.938,342.049 843.344,352.539 C 842.512,358.018 840.518,367.996 838.915,374.712 C 835.795,387.779 835.492,390.647 836.974,392.992 C 838.671,395.677 839.833,392.847 842.930,378.495 C 844.591,370.798 847.124,361.639 848.559,358.142 C 849.994,354.645 851.410,349.424 851.708,346.541 C 852.193,341.838 852.035,341.242 850.171,340.755 ZM 796.412,362.500 C 794.645,366.476 794.645,376.908 796.413,381.128 C 800.920,391.886 811.678,392.503 816.208,382.262 C 818.903,376.169 818.377,364.964 815.149,359.742 C 810.172,351.689 800.590,353.100 796.412,362.500 Z" fill="#ACDEEC" stroke="none"/><path id="13" d="M 923,326 C 921.620,329.810 921.174,327.431 920.733,320.500 C 918.834,290.688 907.507,264.929 888.464,247.115 C 874.381,233.941 858.316,230.154 839.821,235.646 C 833.991,237.377 817.494,245.341 814.787,247.731 C 813.845,248.563 812.383,248.963 811.537,248.621 C 811.025,248.414 810.512,248.207 810,248 C 809.333,247 808.667,246 808,245 C 810.515,243.305 813.030,241.609 815.545,239.914 C 829.442,230.546 844.202,225.048 855.540,225.015 C 879.748,224.944 905.520,247.522 915.913,277.904 C 920.891,292.457 922.128,300.852 923,326 Z" fill="#ACDEEC" stroke="none"/><path id="13" d="M 615,251 C 608.807,254.196 606.556,254.871 606.004,254.562 C 605.669,254.375 605.335,254.187 605,254 C 604.591,253.657 604.181,253.315 603.772,252.972 C 602.854,252.204 603.928,250.896 608.022,247.794 C 636.828,225.969 669.138,214.908 704,214.937 C 728.784,214.957 749.744,219.954 771.726,231.083 C 809.362,250.137 832.540,280.247 842.290,322.750 C 842.997,325.833 843.705,328.917 844.412,332 C 842.275,332 840.137,332 838,332 C 837.667,331 837.333,330 837,329 C 833.025,311.183 825.587,293.706 815.508,278.500 C 809.547,269.507 793.541,253.466 784.760,247.685 C 770.198,238.098 750.408,230.084 731,225.913 C 722.318,224.047 717.384,223.655 702.500,223.646 C 686.343,223.636 683.280,223.919 672.579,226.406 C 666.022,227.930 656.797,230.514 652.079,232.148 C 642.875,235.335 618.313,247.302 616.250,249.605 C 615.833,250.070 615.417,250.535 615,251 Z" fill="#ACDEEC" stroke="none"/><path id="13" d="M 963,344 C 966.370,344 960.822,349.418 946.189,360.416 C 940.518,364.678 933.483,370.561 930.555,373.489 C 924.961,379.083 915.860,391.380 909.824,401.500 C 907.856,404.800 902.133,414.412 897.107,422.859 C 889.524,435.603 887.715,438.029 886.484,437.109 C 885.989,436.739 885.495,436.370 885,436 C 888.764,429.417 892.528,422.833 896.292,416.250 C 911.565,389.536 918.800,379.058 928.933,368.979 C 938.987,358.979 955.204,347.088 963,344 Z" fill="#ACDEEC" stroke="none"/><path id="13" d="M 812,438 C 808.324,438.867 806.902,438.548 806.327,437.801 C 804.248,435.103 796,414.855 796,412.449 C 796,411.068 795.310,409.672 794.466,409.348 C 793.622,409.024 790.503,405.532 787.534,401.588 C 784.565,397.644 780.643,393.035 778.818,391.346 C 776.993,389.657 775.838,388.214 776.250,388.138 C 776.500,388.092 776.750,388.046 777,388 C 778.439,388.782 779.878,389.565 781.316,390.347 C 789.546,394.822 798.481,405.980 803.462,418 C 804.943,421.575 807.471,427.538 812,438 Z" fill="#ACDEEC" stroke="none"/><path id="13" d="M 881,442 C 882.747,443.437 882.983,444.933 882.652,446.251 C 881.752,449.837 870.717,459.931 867.061,460.513 C 866.041,460.675 865.020,460.838 864,461 C 864.333,459.667 864.667,458.333 865,457 C 870.333,452 875.667,447 881,442 Z" fill="#ACDEEC" stroke="none"/><path id="13" d="M 828,459 C 822.508,458.921 809.787,447.885 812.043,445.157 C 812.362,444.771 812.681,444.386 813,444 C 813.667,443.667 814.333,443.333 815,443 C 819.333,447 823.667,451 828,455 C 828,456.333 828,457.667 828,459 Z" fill="#ACDEEC" stroke="none"/><path id="13" d="M 857,461 C 856.998,465.425 856.690,465.498 847.749,465.443 C 837.311,465.379 832.094,463.888 833.891,461.483 C 834.261,460.989 834.630,460.494 835,460 C 835.667,460 836.333,460 837,460 C 838.917,460.339 840.833,460.679 842.750,461.018 C 845.912,461.578 850.412,461.803 857,461 Z" fill="#ACDEEC" stroke="none"/></g><g data-color-group="#eaf5f6" id="pale-cyan-2"><path id="9" d="M 850.171,340.755 C 852.035,341.242 852.193,341.838 851.708,346.541 C 851.410,349.424 849.994,354.645 848.559,358.142 C 847.124,361.639 844.591,370.798 842.930,378.495 C 839.833,392.847 838.671,395.677 836.974,392.992 C 835.492,390.647 835.795,387.779 838.915,374.712 C 840.518,367.996 842.512,358.018 843.344,352.539 C 844.938,342.049 846.277,339.737 850.171,340.755 Z" fill="#EAF5F6" stroke="none"/><path id="9" d="M 736.500,342.362 C 737.325,342.679 738,343.604 738,344.419 C 738,347.305 735.737,356.538 734.377,359.203 C 733.618,360.690 731.709,368.256 730.134,376.018 C 727.086,391.040 726.010,393.438 723.462,390.890 C 722.097,389.525 722.306,387.869 725.469,374.986 C 727.411,367.077 729,359.046 729,357.140 C 729,352.611 732.082,342.906 733.719,342.278 C 734.424,342.008 735.675,342.045 736.500,342.362 Z" fill="#EAF5F6" stroke="none"/><path id="9" d="M 703.555,363.046 C 704.350,363.706 705,365.485 705,367 C 705,370.329 702.920,372.270 699.825,371.827 C 696.999,371.423 695.046,366.742 696.641,364.197 C 697.972,362.073 701.646,361.461 703.555,363.046 Z" fill="#EAF5F6" stroke="none"/><path id="9" d="M 813.441,362.219 C 815.824,365.621 813.880,369.946 809.950,369.985 C 807.644,370.008 806,367.933 806,365 C 806,359.984 810.657,358.244 813.441,362.219 Z" fill="#EAF5F6" stroke="none"/></g></svg>